<svg width="24" height="24" viewBox="0 0 24 24" xmlns="http://www.w3.org/2000/svg">
  <path
    d="M7.19701 12.3824C9.51855 12.3824 11.3974 10.5076 11.3974 8.1912C11.3974 5.87477 9.51855 4 7.19701 4C4.87574 4 2.99694 5.87477 2.99694 8.1912C2.99694 10.5076 4.87763 12.3824 7.19701 12.3824ZM10.0786 13.5793H9.76816C8.98759 13.9546 8.1223 14.1781 7.19944 14.1781C6.27604 14.1781 5.41424 13.9527 4.63017 13.5796H4.3195C1.93502 13.5796 0 15.5103 0 17.8897V18.9678C0 19.9595 0.805855 20.7634 1.79946 20.7634H12.5989C13.5927 20.7634 14.3983 19.9592 14.3983 18.9678V17.8897C14.3983 15.5103 12.4636 13.5796 10.0788 13.5796L10.0786 13.5793ZM17.9967 12.3824C19.9839 12.3824 21.5972 10.7726 21.5972 8.78967C21.5972 6.80677 19.9839 5.19695 17.9967 5.19695C16.0095 5.19695 14.3962 6.80677 14.3962 8.78967C14.3962 10.7726 16.0095 12.3824 17.9967 12.3824ZM19.798 13.5793H19.6552C19.1331 13.7596 18.582 13.8787 17.9986 13.8787C17.4133 13.8787 16.8622 13.7598 16.342 13.5796H16.1994C15.435 13.5796 14.7286 13.7994 14.1108 14.1563C15.025 15.1408 15.5996 16.4458 15.5996 17.8897V19.3266C15.5996 19.4094 15.5813 19.4872 15.5778 19.5662H22.2005C23.1941 19.5662 24 18.7623 24 17.7708C23.9962 15.4544 22.1174 13.5796 19.798 13.5796V13.5793Z"
    fill="currentColor" />
  <path
    d="M10.4756 17.5903C10.6891 17.5903 10.8622 17.4176 10.8622 17.2046C10.8622 16.9915 10.6891 16.8188 10.4756 16.8188C10.2622 16.8188 10.0891 16.9915 10.0891 17.2046C10.0891 17.4176 10.2622 17.5903 10.4756 17.5903Z"
    fill="white" />
  <path
    d="M9.69319 17.2048C9.69319 17.1292 9.70395 17.0568 9.72386 16.9869L8.89648 16.5087V18.1131L10.2766 18.9082V17.9584C10.1095 17.9153 9.96151 17.8179 9.85585 17.6814C9.75019 17.545 9.69288 17.3773 9.69292 17.2048H9.69319ZM10.4754 15.3841L9.10763 16.1719L9.92962 16.6442C10.0756 16.502 10.2714 16.4224 10.4752 16.4224C10.6791 16.4224 10.8749 16.502 11.0209 16.6442L11.8429 16.1719L10.4754 15.3838V15.3841ZM11.2269 16.9866C11.2559 17.0869 11.2646 17.1919 11.2523 17.2955C11.2401 17.3991 11.2073 17.4993 11.1558 17.59C11.1043 17.6807 11.0351 17.7602 10.9524 17.8238C10.8697 17.8874 10.7751 17.9338 10.6742 17.9603V18.9101L12.054 18.1152V16.5108L11.2272 16.9869L11.2269 16.9866Z"
    fill="white" />
  <path
    d="M20.9081 17.228C21.1216 17.228 21.2946 17.0553 21.2946 16.8423C21.2946 16.6292 21.1216 16.4565 20.9081 16.4565C20.6947 16.4565 20.5216 16.6292 20.5216 16.8423C20.5216 17.0553 20.6947 17.228 20.9081 17.228Z"
    fill="white" />
  <path
    d="M20.1258 16.8426C20.1258 16.7667 20.1366 16.6946 20.1565 16.6241L19.3291 16.1464V17.7509L20.7095 18.546V17.5957C20.5421 17.5531 20.3938 17.4558 20.2881 17.3192C20.1823 17.1827 20.1252 17.0147 20.1258 16.842V16.8426ZM20.908 15.0235L19.5408 15.8113L20.3628 16.2836C20.5088 16.1414 20.7046 16.0618 20.9084 16.0618C21.1122 16.0618 21.308 16.1414 21.454 16.2836L22.276 15.8113L20.908 15.0232V15.0235ZM21.6614 16.626C21.6904 16.7263 21.6991 16.8313 21.6868 16.9349C21.6746 17.0385 21.6418 17.1387 21.5903 17.2294C21.5388 17.3201 21.4696 17.3997 21.3869 17.4633C21.3042 17.5269 21.2096 17.5733 21.1087 17.5997V18.5495L22.4888 17.7547V16.1502L21.6614 16.6263V16.626Z"
    fill="white" />
</svg>
