<svg width="38" height="41" viewBox="0 0 38 41" fill="none" xmlns="http://www.w3.org/2000/svg">
<path d="M18.6112 25.4699C16.0934 25.4699 14.0521 23.4352 14.0521 20.9257C14.0521 18.4161 16.0934 16.3814 18.6112 16.3814C21.129 16.3814 23.1703 18.4161 23.1703 20.9257C23.1703 23.4352 21.129 25.4699 18.6112 25.4699ZM9.38916 20.9257C9.38916 20.0366 9.51787 19.1768 9.75497 18.3643L0 12.751V29.7891C0 30.9325 0.611944 31.9903 1.60551 32.562L16.2696 41V29.8183C12.3111 28.7852 9.38916 25.1953 9.38916 20.9257ZM17.0057 0.430454L2.50197 8.77619L12.1779 14.3445C13.8399 12.7307 16.1093 11.7337 18.6135 11.7337C21.12 11.7337 23.3894 12.7307 25.0513 14.3468L34.7272 8.77844L20.2167 0.430454C19.2232 -0.143485 17.9993 -0.143485 17.0057 0.430454ZM27.4697 18.3688C27.7046 19.1813 27.8333 20.0389 27.8333 20.9257C27.8333 25.1953 24.9113 28.7852 20.9529 29.8183V41L35.6169 32.562C36.6105 31.9903 37.2224 30.9325 37.2224 29.7891V12.7555L27.4697 18.3688Z" fill="url(#paint0_linear_14701_9077)"/>
<defs>
<linearGradient id="paint0_linear_14701_9077" x1="0" y1="20.5001" x2="37.2238" y2="20.5001" gradientUnits="userSpaceOnUse">
<stop stop-color="#27A8E0"/>
<stop offset="1" stop-color="#204496"/>
</linearGradient>
</defs>
</svg>
